<svg id="Capa_1" enable-background="new 0 0 512 512" height="512" viewBox="0 0 512 512" width="512" xmlns="http://www.w3.org/2000/svg"><g><g><path d="m512 152c0 16.569-13.431 30-30 30h-451c-16.569 0-31-13.431-31-30v-120h512z" fill="#ff5959"/></g><path d="m256 182h226c16.569 0 30-13.433 30-30v-120h-256z" fill="#e63a57"/><g><path d="m512 512h-512v-360h512z" fill="#ecf2ff"/></g><path d="m256 152h256v360h-256z" fill="#d9e5ff"/><g><g id="Annual_Chackup_2_"><g><path d="m361 392c-24.814 0-45-20.186-45-45s20.186-45 45-45 45 20.186 45 45-20.186 45-45 45z" fill="#bfd6ff"/></g><g><path d="m346 347v60c0 8.276-6.738 15-15 15h-120c-8.262 0-15-6.724-15-15v-46.518c34.199-6.969 60-37.266 60-73.482v-75h-60v30h30v45c0 24.814-20.186 45-45 45s-45-20.186-45-45v-45h30v-30h-60v75c0 36.216 25.801 66.513 60 73.482v46.518c0 24.814 20.186 45 45 45h120c24.814 0 45-20.186 45-45v-60z" fill="#4d4d80"/></g><g><path d="m121 0h-30v92h-30v30h90v-30h-30z" fill="#ffb44d"/><path d="m421 92v-92h-30v92h-30v30h90v-30z" fill="#f83"/><path d="m271 0h-30v92h-30v30h90v-30h-30z" fill="#ffb44d"/></g></g></g><path d="m346 407c0 8.276-6.738 15-15 15h-75v30h75c24.814 0 45-20.186 45-45v-60h-30z" fill="#443d66"/><path d="m271 0h-15v122h45v-30h-30z" fill="#f83"/></g></svg>