<?xml version="1.0" encoding="iso-8859-1"?>
<!-- Generator: Adobe Illustrator 19.0.0, SVG Export Plug-In . SVG Version: 6.00 Build 0)  -->
<svg version="1.1" id="Capa_1" xmlns="http://www.w3.org/2000/svg" xmlns:xlink="http://www.w3.org/1999/xlink" x="0px" y="0px"
	 viewBox="0 0 490.771 490.771" style="enable-background:new 0 0 490.771 490.771;" xml:space="preserve">
<path style="fill:#FFC107;" d="M477.305,78.384l-183.467,178.56l-60.373-60.373l178.56-183.253
	c18.188-17.549,46.977-17.644,65.28-0.213C495.25,31.18,495.271,60.329,477.305,78.384z"/>
<path style="fill:#FFA000;" d="M293.838,256.944l-15.36,14.933l-89.6,87.467c-2.025,1.898-4.691,2.964-7.467,2.987
	c-2.829,0.037-5.542-1.125-7.467-3.2l-42.667-42.667c-4.182-4.014-4.318-10.659-0.304-14.84c0.03-0.031,0.06-0.062,0.09-0.093
	l87.467-89.6l14.933-15.36L293.838,256.944z"/>
<path style="fill:#607D8B;" d="M114.851,298.331c-41.827-0.336-76.151,33.018-77.013,74.837c-0.072,3.007,1.129,5.904,3.307,7.979
	c2.179,2.057,5.116,3.116,8.107,2.923c22.635-1.579,28.117,7.915,36.971,23.765c10.009,25.121,34.855,41.125,61.867,39.851h0.043
	c2.689,0.002,5.28-1.011,7.253-2.837c21.002-17.354,34.21-42.373,36.693-69.504C191.972,332.772,157.424,298.319,114.851,298.331z"
	/>
<path style="fill:#455A64;" d="M158.073,433.136c-1.573-4.051-5.446-6.744-9.792-6.805c-19.331,1.227-37.103-10.601-43.435-28.907
	C96.143,374.035,72.499,359.7,47.737,362.8c-4.325,0.305-8.036,3.197-9.387,7.317c-0.409,1.722-0.652,3.48-0.725,5.248
	c-2.07,23.654-10.487,46.31-24.363,65.579C3.235,457.648-4.679,470.811,3.214,481.84c5.849,6.67,14.7,9.888,23.467,8.533
	c20.984-1.207,41.802-4.436,62.165-9.643c25.002-5.872,48.004-18.26,66.667-35.904C158.677,441.821,159.692,437.19,158.073,433.136z
	"/>
<g>
</g>
<g>
</g>
<g>
</g>
<g>
</g>
<g>
</g>
<g>
</g>
<g>
</g>
<g>
</g>
<g>
</g>
<g>
</g>
<g>
</g>
<g>
</g>
<g>
</g>
<g>
</g>
<g>
</g>
</svg>
