<?xml version="1.0" encoding="iso-8859-1"?>
<!-- Generator: Adobe Illustrator 19.0.0, SVG Export Plug-In . SVG Version: 6.00 Build 0)  -->
<svg version="1.1" id="Capa_1" xmlns="http://www.w3.org/2000/svg" xmlns:xlink="http://www.w3.org/1999/xlink" x="0px" y="0px"
	 viewBox="0 0 512 512" style="enable-background:new 0 0 512 512;" xml:space="preserve">
<g>
	<path style="fill:#455A64;" d="M213.333,512H128c-5.891,0-10.667-4.776-10.667-10.667s4.776-10.667,10.667-10.667h85.333
		c5.891,0,10.667,4.776,10.667,10.667S219.224,512,213.333,512z"/>
	<path style="fill:#455A64;" d="M170.667,512c-1.192,0.001-2.375-0.201-3.499-0.597c-5.558-1.935-8.499-8.007-6.571-13.568
		L331.264,7.168c2.131-5.492,8.311-8.216,13.803-6.085c5.216,2.024,7.982,7.735,6.335,13.082L180.736,504.832
		C179.247,509.121,175.207,511.997,170.667,512z"/>
	<path style="fill:#455A64;" d="M384,21.333h-85.333c-5.891,0-10.667-4.776-10.667-10.667S292.776,0,298.667,0H384
		c5.891,0,10.667,4.776,10.667,10.667S389.891,21.333,384,21.333z"/>
</g>
<path d="M213.333,512H128c-5.891,0-10.667-4.776-10.667-10.667s4.776-10.667,10.667-10.667h85.333
	c5.891,0,10.667,4.776,10.667,10.667S219.224,512,213.333,512z"/>
<path d="M170.667,512c-1.192,0.001-2.375-0.201-3.499-0.597c-5.558-1.935-8.499-8.007-6.571-13.568L331.264,7.168
	c2.131-5.492,8.311-8.216,13.803-6.085c5.216,2.024,7.982,7.735,6.335,13.082L180.736,504.832
	C179.247,509.121,175.207,511.997,170.667,512z"/>
<path d="M384,21.333h-85.333c-5.891,0-10.667-4.776-10.667-10.667S292.776,0,298.667,0H384c5.891,0,10.667,4.776,10.667,10.667
	S389.891,21.333,384,21.333z"/>
<g>
</g>
<g>
</g>
<g>
</g>
<g>
</g>
<g>
</g>
<g>
</g>
<g>
</g>
<g>
</g>
<g>
</g>
<g>
</g>
<g>
</g>
<g>
</g>
<g>
</g>
<g>
</g>
<g>
</g>
</svg>
