<?xml version="1.0" encoding="iso-8859-1"?>
<!-- Generator: Adobe Illustrator 19.0.0, SVG Export Plug-In . SVG Version: 6.00 Build 0)  -->
<svg version="1.1" id="Layer_1" xmlns="http://www.w3.org/2000/svg" xmlns:xlink="http://www.w3.org/1999/xlink" x="0px" y="0px"
	 viewBox="0 0 512 512" style="enable-background:new 0 0 512 512;" xml:space="preserve">
<circle style="fill:#88C5CC;" cx="256" cy="256" r="256"/>
<rect x="333.645" y="329.666" transform="matrix(0.7071 -0.7071 0.7071 0.7071 -143.4283 349.0653)" style="fill:#E6E6E6;" width="32" height="36"/>
<path style="fill:#263740;" d="M387.84,351.9c-9.372-9.372-24.572-9.372-33.94,0c-9.372,9.376-9.372,24.572,0,33.94l66.42,66.416
	c12.284-10.296,23.6-21.712,33.764-34.112L387.84,351.9z"/>
<circle style="fill:#C2E2F2;" cx="256" cy="256" r="112"/>
<circle style="fill:#DAEAF2;" cx="288" cy="216" r="28"/>
<path style="fill:#B8D6E6;" d="M208.804,335.196c-43.748-43.74-43.744-114.652,0-158.392c17.788-17.788,40.076-28.34,63.196-31.66
	c-33.732-4.84-69.252,5.712-95.196,31.66c-43.744,43.74-43.748,114.652,0,158.392c25.944,25.948,61.464,36.5,95.196,31.66
	C248.88,363.536,226.592,352.984,208.804,335.196z"/>
<path style="fill:#242424;" d="M343.68,343.68c-48.348,48.348-127.016,48.348-175.364,0c-48.344-48.348-48.348-127.012,0-175.364
	c48.352-48.348,127.016-48.348,175.364,0S392.028,295.332,343.68,343.68z M185.288,185.288c-38.992,38.992-38.992,102.428,0,141.416
	c38.988,38.988,102.424,38.988,141.416,0s38.992-102.432,0.004-141.416C287.72,146.3,224.276,146.3,185.288,185.288z"/>
<path style="fill:#FFD464;" d="M399.152,329.272c3.112,3.108,3.112,8.204,0,11.312l-56.568,56.572
	c-3.108,3.108-8.208,3.108-11.312,0l-5.66-5.656c-3.108-3.108-3.108-8.204,0-11.316l56.572-56.568c3.108-3.108,8.204-3.112,11.312,0
	L399.152,329.272z"/>
<g>
</g>
<g>
</g>
<g>
</g>
<g>
</g>
<g>
</g>
<g>
</g>
<g>
</g>
<g>
</g>
<g>
</g>
<g>
</g>
<g>
</g>
<g>
</g>
<g>
</g>
<g>
</g>
<g>
</g>
</svg>
