<?xml version="1.0" encoding="iso-8859-1"?>
<!-- Generator: Adobe Illustrator 19.0.0, SVG Export Plug-In . SVG Version: 6.00 Build 0)  -->
<svg version="1.1" id="Layer_1" xmlns="http://www.w3.org/2000/svg" xmlns:xlink="http://www.w3.org/1999/xlink" x="0px" y="0px"
	 viewBox="0 0 512 512" style="enable-background:new 0 0 512 512;" xml:space="preserve">
<circle style="fill:#C2D5D8;" cx="256" cy="256" r="256"/>
<path style="fill:#E6B58A;" d="M240,160.496c-41.124,0-24,103.504-72,91.504c-66.084-16.52-96,2.336-96,44
	c0,74.836,75.22,135.504,168,135.504S408,370.836,408,296S332.78,160.496,240,160.496z M128,312c-11.048,0-20-8.952-20-20
	s8.952-20,20-20s20,8.952,20,20S139.048,312,128,312z"/>
<g>
	<path style="fill:#D9AB82;" d="M152,252c5.744,1.432,10.524,1.18,14.608-0.312c-18.916-4.616-34.784-6.264-47.836-5.312
		C128.616,247.076,139.68,248.916,152,252z"/>
	<path style="fill:#D9AB82;" d="M240,160.496c-1.416,0-2.744,0.144-4.02,0.384C323.164,165.84,392,224.416,392,296
		c0,72.672-70.928,131.972-160,135.34c2.652,0.1,5.316,0.164,8,0.164c92.78,0,168-60.668,168-135.504S332.78,160.496,240,160.496z"
		/>
</g>
<circle style="fill:#E16B5A;" cx="188" cy="380" r="24"/>
<circle style="fill:#F2CF61;" cx="260" cy="388" r="24"/>
<circle style="fill:#4AB8A1;" cx="328" cy="356" r="24"/>
<circle style="fill:#2995CC;" cx="360" cy="284" r="24"/>
<path style="fill:#263740;" d="M270.132,239.36c18.312-3.188,36.28-16.436,52.908-33.068c38.032-38.028,66.312-99.02,62.824-102.508
	c-3.472-3.472-63.3,23.624-102.508,62.828c-16.532,16.536-29.864,34.98-33.068,52.912L270.132,239.36z"/>
<path style="fill:#1E2C33;" d="M385.864,103.784c-0.924-0.924-5.912,0.348-13.416,3.432c-8.664,20.788-31.352,61.176-59.328,89.152
	c-16.62,16.624-34.584,29.884-52.908,33.072l9.92,9.916c18.312-3.188,36.28-16.436,52.908-33.068
	C361.072,168.264,389.352,107.272,385.864,103.784z"/>
<path style="fill:#E6E6E6;" d="M265,187.932c-7.452,10.38-12.836,21.072-14.708,31.584l19.84,19.836
	c10.736-1.868,21.348-7.212,31.64-14.648L265,187.932z"/>
<path style="fill:#CCCCCC;" d="M291.856,214.788c-10.292,7.436-20.912,12.78-31.644,14.652l9.92,9.916
	c10.736-1.868,21.348-7.212,31.64-14.648L291.856,214.788z"/>
<path style="fill:#406A80;" d="M270.132,239.36l-19.84-19.836c-44.644,1.652-24.8,47.944-49.604,62.828
	c17.124,0,46.296-0.004,57.868-11.576C270.132,259.204,271.072,247.168,270.132,239.36z"/>
<path style="fill:#2995CC;" d="M268.476,237.708l-14.884-14.88c-32.86,1.22-16.456,36.992-34.72,47.944
	c12.604,0,32.812,0.252,41.332-8.264C268.736,253.984,269.168,243.456,268.476,237.708z"/>
<g>
</g>
<g>
</g>
<g>
</g>
<g>
</g>
<g>
</g>
<g>
</g>
<g>
</g>
<g>
</g>
<g>
</g>
<g>
</g>
<g>
</g>
<g>
</g>
<g>
</g>
<g>
</g>
<g>
</g>
</svg>
