<svg id="Capa_1" enable-background="new 0 0 512 512" height="512" viewBox="0 0 512 512" width="512" xmlns="http://www.w3.org/2000/svg"><g><g><path d="m437 451h-362c-41.353 0-75-33.647-75-75v-240c0-41.353 33.647-75 75-75h362c41.353 0 75 33.647 75 75v240c0 41.353-33.647 75-75 75z" fill="#ff641a"/></g><path d="m256 451h181c41.353 0 75-33.647 75-75v-240c0-41.353-33.647-75-75-75h-181z" fill="#f03800"/><g id="Youtube_1_"><g><g><path d="m211 346c-2.505 0-5.01-.63-7.266-1.875-4.775-2.651-7.734-7.676-7.734-13.125v-150c0-5.449 2.959-10.474 7.734-13.125 4.717-2.637 10.591-2.505 15.22.41l120 75c4.38 2.739 7.046 7.544 7.046 12.715s-2.666 9.976-7.046 12.715l-120 75c-2.432 1.523-5.185 2.285-7.954 2.285z" fill="#fff5f5"/></g></g></g><path d="m256 320.561 82.954-51.846c4.38-2.739 7.046-7.544 7.046-12.715s-2.666-9.976-7.046-12.715l-82.954-51.846z" fill="#e3e7ea"/></g></svg>